<?xml version="1.0" encoding="UTF-8"?>
<svg version="1.1" xmlns="http://www.w3.org/2000/svg" width="500" height="500">
    <path
        d="M0 0 C165 0 330 0 500 0 C500 165 500 330 500 500 C335 500 170 500 0 500 C0 335 0 170 0 0 Z "
        fill="#fff" transform="translate(0,0)" />
    <path
        d="M0 0 C0.66 0 1.32 0 2 0 C1.49855592 5.68549101 -0.08441652 9.79983107 -2.75 14.8125 C-3.43243475 16.13143639 -4.1147242 17.45044798 -4.796875 18.76953125 C-5.88910492 20.87422149 -6.98612412 22.97430314 -8.11279297 25.06079102 C-12.70366451 33.81851213 -16.07363388 43.10038109 -19.625 52.3125 C-20.33974584 54.1572462 -21.0547551 56.00189036 -21.77001953 57.84643555 C-23.8544472 63.22797639 -25.92818327 68.61359434 -28 74 C-28.55138961 75.43100603 -29.10281868 76.86199685 -29.65429688 78.29296875 C-35.96093978 94.67325016 -41.99358054 111.14086317 -47.82714844 127.69482422 C-48.67550672 130.08555577 -49.5323821 132.4720272 -50.39941406 134.85595703 C-50.74705307 135.81593346 -50.74705307 135.81593346 -51.10171509 136.79530334 C-51.75524981 138.59813125 -52.41196245 140.39980621 -53.06884766 142.20141602 C-54.10523541 144.82471457 -54.10523541 144.82471457 -54 147 C-53.47792969 146.27296875 -52.95585937 145.5459375 -52.41796875 144.796875 C-46.73996619 137.04058429 -40.63502134 129.94961286 -34 123 C-33.1440625 122.09121094 -32.288125 121.18242187 -31.40625 120.24609375 C-26.88073394 115.5516055 -26.88073394 115.5516055 -25 114 C-24.01 114 -23.02 114 -22 114 C-23.32275955 122.65806248 -33.58070571 130.85135154 -39.45654297 137.11523438 C-42.0302266 139.83801893 -42.0302266 139.83801893 -44 143 C-34.76 143 -25.52 143 -16 143 C-15.67 143.99 -15.34 144.98 -15 146 C-15.69448242 146.02505615 -16.38896484 146.0501123 -17.10449219 146.07592773 C-20.31977376 146.19357951 -23.53487975 146.31552205 -26.75 146.4375 C-27.84183594 146.47681641 -28.93367187 146.51613281 -30.05859375 146.55664062 C-37.39458894 146.83879429 -44.68960535 147.32632614 -52 148 C-52.29962646 148.76981201 -52.59925293 149.53962402 -52.90795898 150.33276367 C-54.07094469 153.17327762 -55.47839766 155.68530325 -57.0625 158.3125 C-57.58972656 159.19550781 -58.11695313 160.07851563 -58.66015625 160.98828125 C-59.10230469 161.65214844 -59.54445313 162.31601562 -60 163 C-60.33 163 -60.66 163 -61 163 C-60.5003731 155.50559651 -58.56235522 149.04349737 -56 142 C-56.56847656 142.54269531 -57.13695312 143.08539063 -57.72265625 143.64453125 C-63.25500923 148.77050104 -67.48962883 152.36854804 -75.125 153.4375 C-78.72203007 152.89012586 -80.38468298 151.46147484 -83 149 C-83.38671875 149.54269531 -83.7734375 150.08539063 -84.171875 150.64453125 C-84.69265625 151.35996094 -85.2134375 152.07539063 -85.75 152.8125 C-86.51570313 153.87404297 -86.51570313 153.87404297 -87.296875 154.95703125 C-89.73594435 157.88279563 -91.7851488 159.76295586 -95.5625 160.5 C-98 160 -98 160 -99.640625 157.86328125 C-101.21978072 154.53707108 -101.30811585 152.34618076 -101.1875 148.6875 C-101.14689453 147.08455078 -101.14689453 147.08455078 -101.10546875 145.44921875 C-101.07066406 144.64097656 -101.03585937 143.83273438 -101 143 C-101.66 143 -102.32 143 -103 143 C-103.26876953 143.57218262 -103.53753906 144.14436523 -103.81445312 144.73388672 C-105.03816763 147.07295551 -106.42151586 149.12008573 -107.96875 151.2578125 C-108.53980469 152.04800781 -109.11085938 152.83820313 -109.69921875 153.65234375 C-110.29347656 154.46832031 -110.88773437 155.28429687 -111.5 156.125 C-112.09425781 156.94871094 -112.68851562 157.77242187 -113.30078125 158.62109375 C-117.72995722 164.72995722 -117.72995722 164.72995722 -120 167 C-122.125 166.625 -122.125 166.625 -124 166 C-123.835 165.236875 -123.67 164.47375 -123.5 163.6875 C-122.90854604 160.96403764 -122.90854604 160.96403764 -123 158 C-123.91523438 158.721875 -124.83046875 159.44375 -125.7734375 160.1875 C-126.97376095 161.1252527 -128.1742926 162.06273895 -129.375 163 C-129.97828125 163.47695313 -130.5815625 163.95390625 -131.203125 164.4453125 C-135.7734375 168 -135.7734375 168 -138 168 C-137.93039062 168.58265625 -137.86078125 169.1653125 -137.7890625 169.765625 C-137.26883141 177.64341012 -139.58852517 183.50869666 -144 190 C-147.1681599 193.31020216 -149.96901903 195.79417779 -154.62109375 196.265625 C-157 196 -157 196 -159 194 C-159.13212785 186.46871252 -156.00167668 182.39775789 -151 177 C-149.35796454 175.47506691 -147.71212645 173.95421816 -146.0625 172.4375 C-143.00566632 169.5342691 -143.00566632 169.5342691 -141.39453125 165.76171875 C-141.36587721 162.62696662 -142.01282487 159.96152539 -143 157 C-143.40089844 157.50789062 -143.80179687 158.01578125 -144.21484375 158.5390625 C-149.52013458 164.96315616 -155.26852736 170.6659069 -163.75 172.1875 C-167.18829041 172.33830221 -168.01320006 171.99207997 -171.125 170.125 C-173.34843495 166.41927509 -173.49865075 164.60134695 -172.796875 160.42578125 C-171.37280243 156.0907368 -168.76949045 152.58255186 -166 149 C-165.01 149.33 -164.02 149.66 -163 150 C-163.29349308 154.1089031 -163.80196619 155.77298563 -166.5625 158.9375 C-169.48182074 162.60536452 -169.45671831 164.43281695 -169 169 C-160.29822092 169 -155.51521506 165.54155812 -149 160 C-148.13955078 159.32130859 -148.13955078 159.32130859 -147.26171875 158.62890625 C-142.99311775 154.58695663 -143.19732498 149.04110369 -142.59375 143.5625 C-141.61600561 137.69603368 -139.23577768 132.23577768 -135 128 C-132.4375 127.8125 -132.4375 127.8125 -130 128 C-129 129 -129 129 -128.6875 132.9375 C-128.71435834 138.50612862 -130.67022625 143.01802846 -133 148 C-133.66 148 -134.32 148 -135 148 C-134.35155914 143.80716882 -133.48783354 139.73500079 -132.4375 135.625 C-132.16808594 134.56539062 -131.89867187 133.50578125 -131.62109375 132.4140625 C-131.41613281 131.61742187 -131.21117187 130.82078125 -131 130 C-134.33694049 131.36702394 -135.75597107 132.52207914 -137.25 135.8125 C-140.37354083 144.10519468 -139.77482337 154.26212986 -139 163 C-138.67 163.66 -138.34 164.32 -138 165 C-135.4045519 163.14134172 -132.82613972 161.2603064 -130.25 159.375 C-129.15558594 158.59189453 -129.15558594 158.59189453 -128.0390625 157.79296875 C-127.33007812 157.27089844 -126.62109375 156.74882812 -125.890625 156.2109375 C-125.24125977 155.73962402 -124.59189453 155.26831055 -123.92285156 154.78271484 C-118.46099527 149.71891664 -116.35879243 143.22464888 -113.875 136.3828125 C-113.49129242 135.34557541 -113.10758484 134.30833832 -112.71224976 133.2396698 C-111.4676789 129.87070198 -110.23387319 126.49789869 -109 123.125 C-108.14226453 120.79811668 -107.2836991 118.47153913 -106.42431641 116.14526367 C-104.7227699 111.53760811 -103.02457733 106.92874034 -101.32910156 102.31884766 C-98.3785372 94.30386166 -95.38342951 86.30590866 -92.375 78.3125 C-89.68460771 71.15852842 -86.99794313 64.00343684 -84.34375 56.8359375 C-83.71654053 55.14730591 -83.71654053 55.14730591 -83.07666016 53.42456055 C-82.30233215 51.33865744 -81.53094427 49.25165936 -80.76318359 47.16333008 C-80.42625488 46.25736084 -80.08932617 45.3513916 -79.7421875 44.41796875 C-79.4519873 43.63188232 -79.16178711 42.8457959 -78.86279297 42.03588867 C-78 40 -78 40 -76 37 C-75.01 37 -74.02 37 -73 37 C-73.60970861 40.72511486 -74.68143235 43.77612885 -76.30078125 47.1796875 C-85.53761963 67.01395682 -92.65807287 87.81440716 -100.15258789 108.34838867 C-105.39301202 122.6955843 -110.75365083 136.98957101 -116.29223633 151.22436523 C-116.67396248 152.2103772 -116.67396248 152.2103772 -117.06340027 153.21630859 C-117.73687855 154.95511377 -118.41441235 156.69234667 -119.09228516 158.42944336 C-120.11099001 160.85995983 -120.11099001 160.85995983 -120 163 C-119.66266846 162.51644043 -119.32533691 162.03288086 -118.9777832 161.53466797 C-117.42546643 159.31282329 -115.86901724 157.09390382 -114.3125 154.875 C-113.78205078 154.11445313 -113.25160156 153.35390625 -112.70507812 152.5703125 C-109.64071948 148.20877136 -106.47832583 144.03976247 -103 140 C-101.68 140.33 -100.36 140.66 -99 141 C-98.93941406 141.90363281 -98.87882812 142.80726563 -98.81640625 143.73828125 C-98.73261719 144.91777344 -98.64882813 146.09726563 -98.5625 147.3125 C-98.48128906 148.48425781 -98.40007812 149.65601563 -98.31640625 150.86328125 C-98.1132629 154.02590958 -98.1132629 154.02590958 -97 157 C-94.33720167 157 -92.58932623 156.54616431 -90.61328125 154.71484375 C-86.41540988 149.48188081 -83.59345629 143.48203091 -80.71557617 137.46069336 C-78.18747673 132.18747673 -78.18747673 132.18747673 -76 130 C-75.01 130 -74.02 130 -73 130 C-73.25563184 134.26053069 -73.67646478 136.99438552 -76.5625 140.125 C-79.22279064 142.73801355 -79.22279064 142.73801355 -79.375 145.8125 C-79.22173484 147.9707534 -79.22173484 147.9707534 -78 149 C-72.02480823 149.59751918 -68.74822956 148.2951569 -64 145 C-63.154375 144.4225 -62.30875 143.845 -61.4375 143.25 C-53.88314753 136.27675156 -50.87947371 128.05725776 -47.65136719 118.53210449 C-46.17382977 114.18227046 -44.64259283 109.85138083 -43.11328125 105.51953125 C-42.78800446 104.59610931 -42.46272766 103.67268738 -42.12759399 102.72128296 C-38.14359712 91.47820995 -33.83206875 80.36263224 -29.5 69.25 C-28.89555557 67.69915207 -28.89555557 67.69915207 -28.27890015 66.11697388 C-25.90333248 60.02864026 -23.51749717 53.94439199 -21.12536621 47.86254883 C-20.0377247 45.09595881 -18.95261954 42.32838706 -17.86816406 39.56054688 C-16.25722982 35.45173575 -14.6387391 31.34599344 -13.01293945 27.24304199 C-12.43118921 25.77347081 -11.85120734 24.30319807 -11.27319336 22.83215332 C-3.77362342 3.77362342 -3.77362342 3.77362342 0 0 Z "
        fill="#EAE5F3" transform="translate(421,104)" />
    <path
        d="M0 0 C0.99 0 1.98 0 3 0 C2.24286389 21.19981107 -11.93319041 43.43045857 -20.96875 62.35546875 C-33.11754372 87.80797266 -41.99992828 112.6934409 -45 141 C-45.66 141 -46.32 141 -47 141 C-47.2844512 133.76895108 -46.2548242 127.40705046 -44.625 120.375 C-44.40328125 119.37726563 -44.1815625 118.37953125 -43.953125 117.3515625 C-42.79058955 112.18169896 -41.52133705 107.07586286 -40 102 C-40.66 102 -41.32 102 -42 102 C-42.23332031 102.56589844 -42.46664062 103.13179688 -42.70703125 103.71484375 C-46.45317718 110.33567568 -53.72854572 115.90246511 -61 118 C-64.125 118.4375 -64.125 118.4375 -67 118 C-68.70212538 116.71224042 -70.37387106 115.38248336 -72 114 C-72.70962891 114.99966797 -72.70962891 114.99966797 -73.43359375 116.01953125 C-97.56018433 149.64626081 -97.56018433 149.64626081 -117 153 C-133.68936147 154.70534233 -146.37585135 148.09932735 -160.83007812 140.74682617 C-167.48642204 137.43291129 -173.01813589 134.93342926 -180.5 136.9375 C-181.325 137.288125 -182.15 137.63875 -183 138 C-183.09796875 138.54785156 -183.1959375 139.09570312 -183.296875 139.66015625 C-185.73101571 152.56529879 -189.57040892 165.08723323 -193.44995117 177.6159668 C-193.73588135 178.5419165 -194.02181152 179.46786621 -194.31640625 180.421875 C-194.59887207 181.33517578 -194.88133789 182.24847656 -195.17236328 183.18945312 C-196.29298218 186.99492946 -197.24464407 190.8394058 -198.17163086 194.69628906 C-199.05853019 197.16277361 -200.01696909 198.32609772 -202 200 C-201.30697554 193.44940725 -199.49925238 187.32221437 -197.65625 181.01171875 C-197.32709595 179.87217239 -196.99794189 178.73262604 -196.65881348 177.55854797 C-195.96502699 175.16005278 -195.26897674 172.76221138 -194.57080078 170.36499023 C-193.49905635 166.68425918 -192.43449822 163.00150761 -191.37109375 159.31835938 C-190.69573071 156.98685798 -190.01996359 154.65547359 -189.34375 152.32421875 C-189.02394165 151.21906418 -188.7041333 150.11390961 -188.37463379 148.9752655 C-188.07762573 147.9569313 -187.78061768 146.93859711 -187.47460938 145.8894043 C-187.2133728 144.99118454 -186.95213623 144.09296478 -186.6829834 143.16752625 C-186 141 -186 141 -185 139 C-185.56460938 139.32484375 -186.12921875 139.6496875 -186.7109375 139.984375 C-189.21426324 141.0950656 -190.90301588 141.26820725 -193.625 141.25 C-194.40101563 141.25515625 -195.17703125 141.2603125 -195.9765625 141.265625 C-198 141 -198 141 -200 139 C-199.8393678 135.86767215 -199.46432178 134.44831068 -197.1875 132.25 C-192.32552144 129.47172654 -187.43463518 129.92007889 -182 130 C-181.8860791 129.38833984 -181.7721582 128.77667969 -181.65478516 128.14648438 C-180.50535675 122.16716924 -179.08044823 116.34313422 -177.375 110.5 C-177.11920166 109.61489746 -176.86340332 108.72979492 -176.59985352 107.81787109 C-172.40572245 93.40918218 -168.08508331 79.02020634 -163.25 64.8125 C-161.16527019 58.68465783 -159.47926706 52.51369518 -157.89453125 46.2421875 C-157.1053418 43.38180653 -156.16678353 40.72420824 -155 38 C-154.34 38 -153.68 38 -153 38 C-152.43407483 44.10170233 -154.50239861 49.25337634 -156.4375 54.9375 C-158.47108652 60.95772148 -160.37369636 66.65757297 -161 73 C-161.99 73 -162.98 73 -164 73 C-164.10739502 73.6700708 -164.21479004 74.3401416 -164.32543945 75.03051758 C-165.46989021 81.77554706 -167.1157496 88.17356618 -169.1875 94.6875 C-169.80861843 96.68187895 -170.42836179 98.67668656 -171.046875 100.671875 C-171.36591797 101.69861328 -171.68496094 102.72535156 -172.01367188 103.78320312 C-173.71082286 109.31826781 -175.32424901 114.87750851 -176.9375 120.4375 C-177.24389404 121.49219482 -177.55028809 122.54688965 -177.8659668 123.63354492 C-178.57847477 126.08869536 -179.28989538 128.54415356 -180 131 C-173.65904741 130.65547217 -170.22462652 128.51908168 -165.3125 124.625 C-164.61479492 124.08552734 -163.91708984 123.54605469 -163.19824219 122.99023438 C-156.81212551 117.98782506 -150.83190911 112.64095983 -145 107 C-144.5054834 106.53126465 -144.0109668 106.0625293 -143.50146484 105.57958984 C-135.49408485 97.98350385 -128.57946875 89.85264336 -122 81 C-121.58008789 80.44086914 -121.16017578 79.88173828 -120.72753906 79.30566406 C-115.47519965 72.28204391 -110.66188194 65.02962407 -106.0625 57.5625 C-105.60166016 56.81709961 -105.14082031 56.07169922 -104.66601562 55.30371094 C-102.04190446 50.97489941 -99.92347384 46.6796711 -98 42 C-96.4375 39.5625 -96.4375 39.5625 -95 38 C-94.34 38 -93.68 38 -93 38 C-93.57559855 42.27031899 -95.06145989 45.07554452 -97.375 48.6875 C-98.10910642 49.84179128 -98.84211879 50.99677885 -99.57421875 52.15234375 C-99.96786621 52.77093262 -100.36151367 53.38952148 -100.76708984 54.02685547 C-102.05226089 56.08363812 -103.28994045 58.1634606 -104.51953125 60.25390625 C-113.13130382 74.82804419 -122.96043451 88.12128151 -134.5859375 100.43359375 C-136.63575461 102.61276825 -138.57811464 104.83422195 -140.5 107.125 C-149.08634803 116.9466481 -159.42658618 124.49444579 -170 132 C-164.97476606 136.05659538 -159.08127711 138.38126851 -153.25 141.0625 C-152.095 141.60455078 -150.94 142.14660156 -149.75 142.70507812 C-137.77088932 148.2365282 -125.83639558 151.38668727 -112.68359375 148.1953125 C-92.8497343 140.69620006 -77.84675368 120.28245485 -69.38671875 101.55859375 C-67.91834097 98.84933334 -66.27324334 97.05997531 -64 95 C-63.34 95.33 -62.68 95.66 -62 96 C-62.29741192 100.16376685 -62.81881698 101.79293369 -65.625 105 C-68.38505802 107.80496988 -68.38505802 107.80496988 -67.8125 111.375 C-67.4103125 112.674375 -67.4103125 112.674375 -67 114 C-59.65559958 114.59954289 -55.70920833 111.91902257 -50 107.875 C-39.09452281 98.33634262 -34.7154815 83.61026686 -30.18029785 70.35272217 C-9.64281129 10.486877 -9.64281129 10.486877 0 0 Z "
        fill="#ECE8F5" transform="translate(269,169)" />
    <path
        d="M0 0 C0.99 0 1.98 0 3 0 C2.39029139 3.72511486 1.31856765 6.77612885 -0.30078125 10.1796875 C-9.53879832 30.01648782 -16.65301447 50.81942381 -24.15698242 71.3527832 C-28.856108 84.20457902 -33.61052084 97.03183468 -38.5 109.8125 C-38.77139801 110.52405243 -39.04279602 111.23560486 -39.32241821 111.96871948 C-40.07691181 113.94500612 -40.83455089 115.92004815 -41.59375 117.89453125 C-42.01333984 118.98612549 -42.43292969 120.07771973 -42.86523438 121.20239258 C-43.81294434 123.53884018 -44.82897712 125.76933601 -46 128 C-46.68707555 125.50935112 -47 123.62113708 -47 121 C-48.37285156 122.0828125 -48.37285156 122.0828125 -49.7734375 123.1875 C-50.97376095 124.1252527 -52.1742926 125.06273895 -53.375 126 C-53.97828125 126.47695313 -54.5815625 126.95390625 -55.203125 127.4453125 C-59.7734375 131 -59.7734375 131 -62 131 C-61.93039062 131.58265625 -61.86078125 132.1653125 -61.7890625 132.765625 C-61.26883141 140.64341012 -63.58852517 146.50869666 -68 153 C-71.1681599 156.31020216 -73.96901903 158.79417779 -78.62109375 159.265625 C-81 159 -81 159 -83 157 C-83.13212785 149.46871252 -80.00167668 145.39775789 -75 140 C-73.35796454 138.47506691 -71.71212645 136.95421816 -70.0625 135.4375 C-67.00566632 132.5342691 -67.00566632 132.5342691 -65.39453125 128.76171875 C-65.36587721 125.62696662 -66.01282487 122.96152539 -67 120 C-67.40089844 120.50789063 -67.80179687 121.01578125 -68.21484375 121.5390625 C-73.52013458 127.96315616 -79.26852736 133.6659069 -87.75 135.1875 C-91.18829041 135.33830221 -92.01320006 134.99207997 -95.125 133.125 C-97.34843495 129.41927509 -97.49865075 127.60134695 -96.796875 123.42578125 C-95.37280243 119.0907368 -92.76949045 115.58255186 -90 112 C-89.01 112.33 -88.02 112.66 -87 113 C-87.29349308 117.1089031 -87.80196619 118.77298563 -90.5625 121.9375 C-93.48182074 125.60536452 -93.45671831 127.43281695 -93 132 C-84.29822092 132 -79.51521506 128.54155812 -73 123 C-72.42636719 122.54753906 -71.85273438 122.09507812 -71.26171875 121.62890625 C-66.99311775 117.58695663 -67.19732498 112.04110369 -66.59375 106.5625 C-65.61600561 100.69603368 -63.23577768 95.23577768 -59 91 C-56.4375 90.8125 -56.4375 90.8125 -54 91 C-53 92 -53 92 -52.6875 95.9375 C-52.71435834 101.50612862 -54.67022625 106.01802846 -57 111 C-57.66 111 -58.32 111 -59 111 C-58.35155914 106.80716882 -57.48783354 102.73500079 -56.4375 98.625 C-56.16808594 97.56539063 -55.89867187 96.50578125 -55.62109375 95.4140625 C-55.41613281 94.61742187 -55.21117187 93.82078125 -55 93 C-58.33694049 94.36702394 -59.75597107 95.52207914 -61.25 98.8125 C-64.37354083 107.10519468 -63.77482337 117.26212986 -63 126 C-62.67 126.66 -62.34 127.32 -62 128 C-59.4045519 126.14134172 -56.82613972 124.2603064 -54.25 122.375 C-53.52039063 121.85292969 -52.79078125 121.33085937 -52.0390625 120.79296875 C-51.33007812 120.27089844 -50.62109375 119.74882812 -49.890625 119.2109375 C-49.24125977 118.73962402 -48.59189453 118.26831055 -47.92285156 117.78271484 C-42.46099527 112.71891664 -40.35879243 106.22464888 -37.875 99.3828125 C-37.49129242 98.34557541 -37.10758484 97.30833832 -36.71224976 96.2396698 C-35.4676789 92.87070198 -34.23387319 89.49789869 -33 86.125 C-32.14226453 83.79811668 -31.2836991 81.47153913 -30.42431641 79.14526367 C-28.7227699 74.53760811 -27.02457733 69.92874034 -25.32910156 65.31884766 C-22.3785372 57.30386166 -19.38342951 49.30590866 -16.375 41.3125 C-13.68460771 34.15852842 -10.99794313 27.00343684 -8.34375 19.8359375 C-7.71654053 18.14730591 -7.71654053 18.14730591 -7.07666016 16.42456055 C-6.30233215 14.33865744 -5.53094427 12.25165936 -4.76318359 10.16333008 C-4.42625488 9.25736084 -4.08932617 8.3513916 -3.7421875 7.41796875 C-3.4519873 6.63188232 -3.16178711 5.8457959 -2.86279297 5.03588867 C-2 3 -2 3 0 0 Z "
        fill="#ECE8F5" transform="translate(345,141)" />
    <path
        d="M0 0 C0.66 0 1.32 0 2 0 C2.56592517 6.10170233 0.49760139 11.25337634 -1.4375 16.9375 C-3.47108652 22.95772148 -5.37369636 28.65757297 -6 35 C-6.99 35 -7.98 35 -9 35 C-9.10739502 35.6700708 -9.21479004 36.3401416 -9.32543945 37.03051758 C-10.46989021 43.77554706 -12.1157496 50.17356618 -14.1875 56.6875 C-14.80861843 58.68187895 -15.42836179 60.67668656 -16.046875 62.671875 C-16.52543945 64.21198242 -16.52543945 64.21198242 -17.01367188 65.78320312 C-18.71082286 71.31826781 -20.32424901 76.87750851 -21.9375 82.4375 C-22.24389404 83.49219482 -22.55028809 84.54688965 -22.8659668 85.63354492 C-23.57847477 88.08869536 -24.28989538 90.54415356 -25 93 C-18.65904741 92.65547217 -15.22462652 90.51908168 -10.3125 86.625 C-9.61479492 86.08552734 -8.91708984 85.54605469 -8.19824219 84.99023438 C-1.81212551 79.98782506 4.16809089 74.64095983 10 69 C10.4945166 68.53126465 10.9890332 68.0625293 11.49853516 67.57958984 C19.50591515 59.98350385 26.42053125 51.85264336 33 43 C33.41991211 42.44086914 33.83982422 41.88173828 34.27246094 41.30566406 C39.52480035 34.28204391 44.33811806 27.02962407 48.9375 19.5625 C49.39833984 18.81709961 49.85917969 18.07169922 50.33398438 17.30371094 C52.95809554 12.97489941 55.07652616 8.6796711 57 4 C58.5625 1.5625 58.5625 1.5625 60 0 C60.66 0 61.32 0 62 0 C61.42440145 4.27031899 59.93854011 7.07554452 57.625 10.6875 C56.89089358 11.84179128 56.15788121 12.99677885 55.42578125 14.15234375 C55.03213379 14.77093262 54.63848633 15.38952148 54.23291016 16.02685547 C52.94773911 18.08363812 51.71005955 20.1634606 50.48046875 22.25390625 C41.86869618 36.82804419 32.03956549 50.12128151 20.4140625 62.43359375 C18.36424539 64.61276825 16.42188536 66.83422195 14.5 69.125 C5.91365197 78.9466481 -4.42658618 86.49444579 -15 94 C-9.97476606 98.05659538 -4.08127711 100.38126851 1.75 103.0625 C2.905 103.60455078 4.06 104.14660156 5.25 104.70507812 C13.58729378 108.55489015 20.76679826 111.04792489 30 111.625 C31.134375 111.69976562 32.26875 111.77453125 33.4375 111.8515625 C34.7059375 111.92503906 34.7059375 111.92503906 36 112 C36 112.33 36 112.66 36 113 C35.39671875 113.06058594 34.7934375 113.12117188 34.171875 113.18359375 C33.37265625 113.26738281 32.5734375 113.35117187 31.75 113.4375 C30.96109375 113.51871094 30.1721875 113.59992188 29.359375 113.68359375 C27.03970578 113.91968812 27.03970578 113.91968812 25.06640625 114.64453125 C15.87100976 116.22634804 2.11420626 106.78977952 -5.82739258 102.74707031 C-12.48572228 99.43471799 -18.01661643 96.93302226 -25.5 98.9375 C-26.325 99.288125 -27.15 99.63875 -28 100 C-28.09796875 100.54785156 -28.1959375 101.09570312 -28.296875 101.66015625 C-30.73101571 114.56529879 -34.57040892 127.08723323 -38.44995117 139.6159668 C-38.73588135 140.5419165 -39.02181152 141.46786621 -39.31640625 142.421875 C-39.59887207 143.33517578 -39.88133789 144.24847656 -40.17236328 145.18945312 C-41.29298218 148.99492946 -42.24464407 152.8394058 -43.17163086 156.69628906 C-44.05853019 159.16277361 -45.01696909 160.32609772 -47 162 C-46.30697554 155.44940725 -44.49925238 149.32221437 -42.65625 143.01171875 C-42.32709595 141.87217239 -41.99794189 140.73262604 -41.65881348 139.55854797 C-40.96502699 137.16005278 -40.26897674 134.76221138 -39.57080078 132.36499023 C-38.49905635 128.68425918 -37.43449822 125.00150761 -36.37109375 121.31835938 C-35.69573071 118.98685798 -35.01996359 116.65547359 -34.34375 114.32421875 C-34.02394165 113.21906418 -33.7041333 112.11390961 -33.37463379 110.9752655 C-33.07762573 109.9569313 -32.78061768 108.93859711 -32.47460938 107.8894043 C-32.2133728 106.99118454 -31.95213623 106.09296478 -31.6829834 105.16752625 C-31 103 -31 103 -30 101 C-30.84691406 101.48726562 -30.84691406 101.48726562 -31.7109375 101.984375 C-34.21426324 103.0950656 -35.90301588 103.26820725 -38.625 103.25 C-39.40101562 103.25515625 -40.17703125 103.2603125 -40.9765625 103.265625 C-43 103 -43 103 -45 101 C-44.8393678 97.86767215 -44.46432178 96.44831068 -42.1875 94.25 C-37.32552144 91.47172654 -32.43463518 91.92007889 -27 92 C-26.8860791 91.38833984 -26.7721582 90.77667969 -26.65478516 90.14648438 C-25.50535675 84.16716924 -24.08044823 78.34313422 -22.375 72.5 C-22.11920166 71.61489746 -21.86340332 70.72979492 -21.59985352 69.81787109 C-17.40572245 55.40918218 -13.08508331 41.02020634 -8.25 26.8125 C-6.16527019 20.68465783 -4.47926706 14.51369518 -2.89453125 8.2421875 C-2.1053418 5.38180653 -1.16678353 2.72420824 0 0 Z "
        fill="#E7E2F2" transform="translate(114,207)" />
    <path
        d="M0 0 C0.99 0 1.98 0 3 0 C2.34007531 18.47789119 -9.44501734 37.41653663 -17 54 C-17.96759714 56.12883843 -18.93505877 58.25773846 -19.90234375 60.38671875 C-20.60151265 61.92450183 -21.30071054 63.46227174 -22 65 C-22.66 65 -23.32 65 -24 65 C-25.63676257 66.9600281 -25.63676257 66.9600281 -27 69 C-28.61406115 64.15781655 -27.10186167 60.58496565 -25.31640625 56.05078125 C-25.02322006 55.27929245 -24.73003387 54.50780365 -24.42796326 53.7129364 C-23.80239647 52.07416727 -23.17072892 50.43771591 -22.53344727 48.8034668 C-21.585147 46.37060091 -20.65510599 43.93143883 -19.72851562 41.49023438 C-16.59221858 33.28870711 -13.2830133 25.17664945 -9.734375 17.14453125 C-9.40993912 16.40785721 -9.08550323 15.67118317 -8.75123596 14.91218567 C-3.76968958 3.80304967 -3.76968958 3.80304967 0 0 Z "
        fill="#E9E4F3" transform="translate(269,169)" />
    <path
        d="M0 0 C2.82150971 3.21068346 3.65083451 6.40822438 3.48046875 10.68359375 C2.20360967 16.83950785 -1.38110301 22.92998192 -6.0625 27.125 C-8.92749143 28.95371793 -10.60643911 30 -14 30 C-16.3125 29.125 -16.3125 29.125 -18 27 C-19.24249066 18.30256535 -16.12506433 10.22627747 -10.94921875 3.2265625 C-7.59086345 -0.60963494 -4.93317245 -1.89737402 0 0 Z "
        fill="#" transform="translate(319,304)" />
    <path
        d="M0 0 C7.06163974 -0.47875524 7.06163974 -0.47875524 11.0625 1.5625 C13 4 13 4 13.3125 7.375 C11.50164627 12.37640554 8.61320912 14.51273242 4 17 C0.5 17.875 0.5 17.875 -2 18 C1.31241372 22.68974039 4.40535389 26.48644709 9 30 C9 30.66 9 31.32 9 32 C2.53032462 29.78182558 -0.46925936 26.88456773 -4 21 C-5.65 24.63 -7.3 28.26 -9 32 C-9.66 31.67 -10.32 31.34 -11 31 C-9.18824948 24.24566692 -6.81507034 17.81224903 -4.15771484 11.35522461 C-2.62015931 7.61072527 -1.23564602 3.8547426 0 0 Z "
        fill="#F0ECF7" transform="translate(331,303)" />
    <path
        d="M0 0 C2.4375 0.1875 2.4375 0.1875 3.4375 1.1875 C4.01763543 8.49720642 2.52456173 13.58614924 -0.5625 20.1875 C-1.2225 20.1875 -1.8825 20.1875 -2.5625 20.1875 C-1.91405914 15.99466882 -1.05033354 11.92250079 0 7.8125 C0.26941406 6.75289062 0.53882813 5.69328125 0.81640625 4.6015625 C1.02136719 3.80492187 1.22632813 3.00828125 1.4375 2.1875 C-1.00108601 3.15373219 -2.32566073 3.83036142 -3.79296875 6.04296875 C-6.94634229 13.72690345 -7.34307261 20.95897294 -7.5625 29.1875 C-8.5525 29.1875 -9.5425 29.1875 -10.5625 29.1875 C-12.15814005 30.75699581 -12.15814005 30.75699581 -13.6875 32.8125 C-18.49785531 38.5020589 -23.80338437 43.02784969 -31.3125 44.375 C-34.75079041 44.52580221 -35.57570006 44.17957997 -38.6875 42.3125 C-40.91093495 38.60677509 -41.06115075 36.78884695 -40.359375 32.61328125 C-38.93530243 28.2782368 -36.33199045 24.77005186 -33.5625 21.1875 C-32.5725 21.5175 -31.5825 21.8475 -30.5625 22.1875 C-30.85599308 26.2964031 -31.36446619 27.96048563 -34.125 31.125 C-37.04432074 34.79286452 -37.01921831 36.62031695 -36.5625 41.1875 C-27.86072092 41.1875 -23.07771506 37.72905812 -16.5625 32.1875 C-15.98886719 31.73503906 -15.41523438 31.28257812 -14.82421875 30.81640625 C-10.55561775 26.77445663 -10.75982498 21.22860369 -10.15625 15.75 C-9.24467937 10.28057619 -6.50034115 0.47563472 0 0 Z "
        fill="#E5DFF1" transform="translate(288.5625,231.8125)" />
    <path
        d="M0 0 C0.99 0.495 0.99 0.495 2 1 C1.70258808 5.16376685 1.18118302 6.79293369 -1.625 10 C-4.31195319 12.78775883 -4.31195319 12.78775883 -4.125 16.25 C-3.25283605 19.21445621 -3.25283605 19.21445621 -0.4375 20.375 C0.366875 20.58125 1.17125 20.7875 2 21 C2 21.33 2 21.66 2 22 C-2.56830973 22.31147566 -4.50007882 21.89884776 -8 19 C-8.47308594 19.66644531 -8.94617188 20.33289063 -9.43359375 21.01953125 C-20.23958866 36.0805183 -33.38337704 54.39761515 -53 58 C-56.69311842 58.30489127 -60.31923836 58.48447632 -64 58 C-64.66 57.34 -65.32 56.68 -66 56 C-65.35675781 55.98582031 -64.71351563 55.97164063 -64.05078125 55.95703125 C-47.592068 55.08831172 -34.95420307 46.82292314 -24 35 C-21.67989261 32.25372343 -19.4853321 29.42610197 -17.3125 26.5625 C-16.75755859 25.85029297 -16.20261719 25.13808594 -15.63085938 24.40429688 C-12.12856638 19.8192498 -9.42931999 15.22214877 -7 10 C-6.1389281 8.34683711 -5.26676076 6.69931249 -4.375 5.0625 C-3.97023437 4.31097656 -3.56546875 3.55945313 -3.1484375 2.78515625 C-2 1 -2 1 0 0 Z "
        fill="#EEEAF6" transform="translate(205,264)" />
    <path
        d="M0 0 C3.875 0.875 3.875 0.875 5 2 C4.93346362 4.43160214 4.80468182 6.82610062 4.625 9.25 C4.57609619 9.96349609 4.52719238 10.67699219 4.47680664 11.41210938 C4.32427343 13.60858764 4.16353994 15.80431576 4 18 C3.90332031 19.30453125 3.80664062 20.6090625 3.70703125 21.953125 C3.47782762 24.96931187 3.24265604 27.98486958 3 31 C2.01 30.67 1.02 30.34 0 30 C0 26.37 0 22.74 0 19 C-4.70916321 19.35652895 -4.70916321 19.35652895 -9 21 C-11.56650789 24.42719538 -13.32444768 28.07066555 -15 32 C-15.66 31.67 -16.32 31.34 -17 31 C-15.52761439 25.96412795 -13.34433807 21.70594076 -10.75 17.1875 C-10.35176025 16.48625 -9.95352051 15.785 -9.54321289 15.0625 C-6.57951011 9.89140318 -3.44656345 4.86573663 0 0 Z "
        fill="#F1EEF7" transform="translate(359,302)" />
    <path
        d="M0 0 C0.66 0 1.32 0 2 0 C1.42440145 4.27031899 -0.06145989 7.07554452 -2.375 10.6875 C-3.10910642 11.84179128 -3.84211879 12.99677885 -4.57421875 14.15234375 C-4.96786621 14.77093262 -5.36151367 15.38952148 -5.76708984 16.02685547 C-7.05226089 18.08363812 -8.28994045 20.1634606 -9.51953125 22.25390625 C-18.12657735 36.82004535 -27.94981083 50.10620378 -39.56640625 62.4140625 C-41.72113589 64.7036789 -43.77760397 67.04193311 -45.8125 69.4375 C-48.62326795 72.6895721 -51.61341571 75.35681226 -55 78 C-55.66 77.67 -56.32 77.34 -57 77 C-53.44707702 72.74650066 -49.75319415 68.71773218 -45.77392578 64.85693359 C-38.79625108 58.07153061 -32.80060708 50.80468875 -27 43 C-26.58008789 42.44086914 -26.16017578 41.88173828 -25.72753906 41.30566406 C-20.47519965 34.28204391 -15.66188194 27.02962407 -11.0625 19.5625 C-10.37124023 18.44439941 -10.37124023 18.44439941 -9.66601562 17.30371094 C-7.04190446 12.97489941 -4.92347384 8.6796711 -3 4 C-1.4375 1.5625 -1.4375 1.5625 0 0 Z "
        fill="#E7E2F2" transform="translate(174,207)" />
    <path
        d="M0 0 C2.82150971 3.21068346 3.65083451 6.40822438 3.48046875 10.68359375 C2.20360967 16.83950785 -1.38110301 22.92998192 -6.0625 27.125 C-8.92749143 28.95371793 -10.60643911 30 -14 30 C-16.3125 29.125 -16.3125 29.125 -18 27 C-19.24249066 18.30256535 -16.12506433 10.22627747 -10.94921875 3.2265625 C-7.59086345 -0.60963494 -4.93317245 -1.89737402 0 0 Z M-6.5625 3.21484375 C-12.83172819 10.72769601 -15.62476886 17.15989045 -15 27 C-12.00454714 27.28822227 -10.52053138 27.39942816 -8.0859375 25.53125 C-2.38099329 18.75825687 0.72635225 13.07940312 0 4 C-0.33 3.34 -0.66 2.68 -1 2 C-4.80356181 1.59079736 -4.80356181 1.59079736 -6.5625 3.21484375 Z "
        fill="#EAE5F3" transform="translate(319,304)" />
    <path
        d="M0 0 C0.99 0 1.98 0 3 0 C2.39387635 3.68914335 1.34723136 6.70578646 -0.26171875 10.07421875 C-2.9828196 15.91184414 -5.43006171 21.8297636 -7.8125 27.8125 C-8.45445312 29.41544922 -8.45445312 29.41544922 -9.109375 31.05078125 C-12.43415422 39.41699128 -15.54794905 47.8494278 -18.48754883 56.35864258 C-18.94230591 57.65064575 -18.94230591 57.65064575 -19.40625 58.96875 C-19.66728516 59.72607422 -19.92832031 60.48339844 -20.19726562 61.26367188 C-21 63 -21 63 -23 64 C-22.54036485 56.26280834 -19.82043803 49.66477287 -17 42.5 C-16.50369734 41.22123083 -16.00834766 39.94209141 -15.51391602 38.66259766 C-14.7577477 36.70620817 -14.00091 34.75010886 -13.24061584 32.7953186 C-10.34273964 25.33947923 -7.57475977 17.83531851 -4.81835938 10.32617188 C-4.47482422 9.40126953 -4.13128906 8.47636719 -3.77734375 7.5234375 C-3.48077881 6.71825684 -3.18421387 5.91307617 -2.87866211 5.08349609 C-2 3 -2 3 0 0 Z "
        fill="#E8E3F2" transform="translate(345,141)" />
    <path
        d="M0 0 C0.33643576 5.4951174 -0.38978457 9.13959885 -3 14 C-5.70314704 17.04970436 -8.54770305 19.81354526 -12 22 C-12.99 22 -13.98 22 -15 22 C-15.84304473 16.52020927 -13.85535069 13.54951166 -10.79296875 9.2578125 C-3.44117647 0 -3.44117647 0 0 0 Z "
        fill="#5129A1" transform="translate(280,276)" />
    <path
        d="M0 0 C4.49897412 13.49692237 -16.06240563 44.39827019 -22 57 C-23.32838986 53.01483041 -22.30451992 51.51507655 -20.7890625 47.62890625 C-20.54544983 46.99848923 -20.30183716 46.3680722 -20.05084229 45.71855164 C-19.25232621 43.6624247 -18.43941373 41.61237679 -17.625 39.5625 C-17.07290682 38.15534115 -16.52098688 36.74811431 -15.96923828 35.34082031 C-4.98079196 7.47118794 -4.98079196 7.47118794 0 0 Z "
        fill="#5831A5" transform="translate(268,174)" />
    <path
        d="M0 0 C0.66 0.33 1.32 0.66 2 1 C2.6328125 3.94140625 2.6328125 3.94140625 3.125 7.5625 C3.29257812 8.76003906 3.46015625 9.95757812 3.6328125 11.19140625 C3.75398438 12.11824219 3.87515625 13.04507812 4 14 C7.57204824 11.09706742 10.91295844 8.26890659 13.75 4.625 C14.4925 3.75875 15.235 2.8925 16 2 C16.99 2 17.98 2 19 2 C17.673082 5.31341512 15.70210491 7.3914701 13.1652832 9.85839844 C6.16259741 16.74886541 3.33293596 23.56514296 1 33 C0.34 32.67 -0.32 32.34 -1 32 C-1.15909915 28.6589178 -1.08355753 26.23101199 0.0625 23.0625 C1.36212587 18.81705549 0.9954523 14.99090459 -1 11 C-1.09499503 9.50243129 -1.12987198 8.00057068 -1.125 6.5 C-1.12757813 5.7059375 -1.13015625 4.911875 -1.1328125 4.09375 C-1 2 -1 2 0 0 Z "
        fill="#EAE5F3" transform="translate(374,302)" />
    <path
        d="M0 0 C0 0.66 0 1.32 0 2 C-2.64 2.33 -5.28 2.66 -8 3 C-8.2475 4.216875 -8.495 5.43375 -8.75 6.6875 C-10.12037065 12.90381903 -12.0701587 18.93879942 -14 25 C-11.69 25.66 -9.38 26.32 -7 27 C-7 27.33 -7 27.66 -7 28 C-12.28 28.33 -17.56 28.66 -23 29 C-23 28.01 -23 27.02 -23 26 C-21.35 25.67 -19.7 25.34 -18 25 C-15.69 18.07 -13.38 11.14 -11 4 C-12.98 4 -14.96 4 -17 4 C-17 3.34 -17 2.68 -17 2 C-11.21642935 -0.01167675 -6.09781001 -0.22084624 0 0 Z "
        fill="#F0EDF7" transform="translate(411,304)" />
    <path
        d="M0 0 C0.99 0 1.98 0 3 0 C2.88637738 1.4800841 2.75877092 2.95910074 2.625 4.4375 C2.55539062 5.26121094 2.48578125 6.08492187 2.4140625 6.93359375 C2.27742188 7.61550781 2.14078125 8.29742187 2 9 C1.01 9.495 1.01 9.495 0 10 C-0.33 9.01 -0.66 8.02 -1 7 C-6.45874746 17.24816621 -10.98311478 27.6550435 -15.02905273 38.54321289 C-15.56767944 39.97395142 -15.56767944 39.97395142 -16.1171875 41.43359375 C-16.43284668 42.29009521 -16.74850586 43.14659668 -17.07373047 44.02905273 C-18 46 -18 46 -20 47 C-19.50593141 39.78870101 -16.6677588 33.50322969 -13.9375 26.875 C-13.19693359 25.07035278 -13.19693359 25.07035278 -12.44140625 23.22924805 C-5.2079049 5.95715537 -5.2079049 5.95715537 0 0 Z "
        fill="#E9E4F3" transform="translate(269,169)" />
    <path
        d="M0 0 C7.12750497 2.42977662 13.75146991 5.67418059 20.47875977 9.03540039 C28.04224815 12.73691739 34.72531368 14.71426216 43.20727539 15.24438477 C44.34165039 15.31915039 45.47602539 15.39391602 46.64477539 15.47094727 C47.49040039 15.51993164 48.33602539 15.56891602 49.20727539 15.61938477 C49.20727539 15.94938477 49.20727539 16.27938477 49.20727539 16.61938477 C48.60399414 16.6799707 48.00071289 16.74055664 47.37915039 16.80297852 C46.18032227 16.92866211 46.18032227 16.92866211 44.95727539 17.05688477 C44.16836914 17.1380957 43.37946289 17.21930664 42.56665039 17.30297852 C40.24698117 17.53907289 40.24698117 17.53907289 38.27368164 18.26391602 C26.94489553 20.21272421 5.40038141 6.74812211 -3.79272461 0.61938477 C-1.79272461 -0.38061523 -1.79272461 -0.38061523 0 0 Z "
        fill="#E7E1F2" transform="translate(100.792724609375,303.380615234375)" />
    <path
        d="M0 0 C0.66 0 1.32 0 2 0 C2.56592517 6.10170233 0.49760139 11.25337634 -1.4375 16.9375 C-3.47108652 22.95772148 -5.37369636 28.65757297 -6 35 C-6.99 35 -7.98 35 -9 35 C-9.12375 35.94875 -9.2475 36.8975 -9.375 37.875 C-10 41 -10 41 -12 43 C-11.62958681 36.94991789 -10.00400208 31.7219651 -8.015625 26.00610352 C-5.99755245 20.15412805 -4.41053262 14.24168229 -2.89453125 8.2421875 C-2.1053418 5.38180653 -1.16678353 2.72420824 0 0 Z "
        fill="#ECE7F4" transform="translate(114,207)" />
    <path
        d="M0 0 C0.66 0.66 1.32 1.32 2 2 C1.06168721 9.38921321 -1.31302042 16.31387281 -3.60205078 23.37207031 C-6.42804908 32.15525235 -8.73696782 41.05801885 -11 50 C-13 47 -13 47 -12.96875 45.1875 C-11.53657709 38.50402642 -9.49808649 32.05455098 -7.39794922 25.55737305 C-4.6746651 17.10754913 -2.31386617 8.5694955 0 0 Z "
        fill="#DCD4EC" transform="translate(101,248)" />
    <path
        d="M0 0 C0.99 0.33 1.98 0.66 3 1 C2.70650692 5.1089031 2.19803381 6.77298563 -0.5625 9.9375 C-3.48182074 13.60536452 -3.45671831 15.43281695 -3 20 C-1.02 20 0.96 20 3 20 C3.33 20.99 3.66 21.98 4 23 C0.08563342 23.4551589 -1.60138447 23.26291663 -4.9375 21.0625 C-7.41649972 17.38156102 -7.51430811 15.69450824 -6.796875 11.42578125 C-5.37280243 7.0907368 -2.76949045 3.58255186 0 0 Z "
        fill="#E9E4F3" transform="translate(255,253)" />
    <path
        d="M0 0 C0.66 0 1.32 0 2 0 C1.50782515 5.86764706 -0.25783768 10.13978471 -3 15.3125 C-3.36867188 16.02728516 -3.73734375 16.74207031 -4.1171875 17.47851562 C-5.06997715 19.32324158 -6.03419432 21.16205513 -7 23 C-7.33 23.66 -7.66 24.32 -8 25 C-8.99 25 -9.98 25 -11 25 C-10.31730485 20.28571322 -8.54008776 16.25436104 -6.625 11.9375 C-6.16867187 10.87692383 -6.16867187 10.87692383 -5.703125 9.79492188 C-2.65229538 2.85232883 -2.65229538 2.85232883 0 0 Z "
        fill="#F1EEF7" transform="translate(421,104)" />
    <path
        d="M0 0 C1.3125 2.0625 1.3125 2.0625 2 4 C1.01 4 0.02 4 -1 4 C-1 3.34 -1 2.68 -1 2 C-5.48446185 3.37025223 -7.42623768 5.09784422 -10 9 C-12.4403411 13.84492628 -14.40419522 18.81363447 -16 24 C-16.33 24 -16.66 24 -17 24 C-17.59510449 15.96608941 -15.46422653 9.6963398 -11 3 C-7.4278569 -0.5721431 -4.9337734 -1.81770599 0 0 Z "
        fill="#EFEBF6" transform="translate(319,304)" />
    <path
        d="M0 0 C2.31 0.33 4.62 0.66 7 1 C7.234375 3.29296875 7.234375 3.29296875 7 6 C5.390625 7.80078125 5.390625 7.80078125 3.25 9.3125 C2.55390625 9.82425781 1.8578125 10.33601563 1.140625 10.86328125 C-1 12 -1 12 -5 12 C-4.54738642 10.56068883 -4.08767021 9.12361001 -3.625 7.6875 C-3.24214844 6.48673828 -3.24214844 6.48673828 -2.8515625 5.26171875 C-2 3 -2 3 0 0 Z "
        fill="#5027A0" transform="translate(334,306)" />
    <path
        d="M0 0 C0.33 0 0.66 0 1 0 C1.82560811 8.25608106 -0.38696665 14.12433718 -5 21 C-8.1642636 24.31229932 -10.97088343 26.79436673 -15.62109375 27.265625 C-18 27 -18 27 -20 25 C-20.125 22.375 -20.125 22.375 -20 20 C-19.01 20.33 -18.02 20.66 -17 21 C-17 22.32 -17 23.64 -17 25 C-11.03243851 22.3631705 -7.34226541 19.45310575 -4.1875 13.6875 C-2.82061495 9.44296221 -2.76725764 6.42210482 -3 2 C-2.34 2 -1.68 2 -1 2 C-0.67 1.34 -0.34 0.68 0 0 Z "
        fill="#DAD2EB" transform="translate(282,273)" />
    <path
        d="M0 0 C0.99 0 1.98 0 3 0 C2.39090563 3.69428979 1.3450972 6.74299012 -0.25 10.125 C-0.69214844 11.07246094 -1.13429688 12.01992187 -1.58984375 12.99609375 C-2.28787109 14.48302734 -2.28787109 14.48302734 -3 16 C-3.94018675 18.06127664 -4.87780972 20.12372516 -5.8125 22.1875 C-6.54166667 23.79166667 -7.27083333 25.39583333 -8 27 C-8.66 26.34 -9.32 25.68 -10 25 C-8.90516059 21.7675956 -7.79748862 18.53973049 -6.6875 15.3125 C-6.37876953 14.40048828 -6.07003906 13.48847656 -5.75195312 12.54882812 C-2.52983233 3.22163634 -2.52983233 3.22163634 0 0 Z "
        fill="#F0EDF7" transform="translate(345,141)" />
    <path
        d="M0 0 C0.96099609 0.00451172 1.92199219 0.00902344 2.91210938 0.01367188 C5.25397422 0.02532294 7.59570181 0.04167975 9.9375 0.0625 C10.2675 1.0525 10.5975 2.0425 10.9375 3.0625 C6.5219221 3.31738223 2.10527877 3.53695991 -2.3125 3.75 C-3.56675781 3.82283203 -4.82101562 3.89566406 -6.11328125 3.97070312 C-7.31855469 4.02548828 -8.52382813 4.08027344 -9.765625 4.13671875 C-10.87583008 4.19432373 -11.98603516 4.25192871 -13.12988281 4.3112793 C-16.40951744 4.03306187 -17.68683504 3.27389025 -20.0625 1.0625 C-13.33065587 0.18563415 -6.7839632 -0.06137197 0 0 Z "
        fill="#D3C8E7" transform="translate(395.0625,246.9375)" />
    <path
        d="M0 0 C0.66 0.66 1.32 1.32 2 2 C1.83251953 4.1730957 1.83251953 4.1730957 1.2578125 6.86328125 C0.95665527 8.34368896 0.95665527 8.34368896 0.64941406 9.85400391 C0.3279541 11.41127197 0.3279541 11.41127197 0 13 C-0.3645778 15.03377221 -0.72138197 17.06895362 -1.0703125 19.10546875 C-1.24433594 20.10771484 -1.41835937 21.10996094 -1.59765625 22.14257812 C-1.77167969 23.14740234 -1.94570312 24.15222656 -2.125 25.1875 C-2.30675781 26.23486328 -2.48851562 27.28222656 -2.67578125 28.36132812 C-3.11758004 30.90748428 -3.55898093 33.45370869 -4 36 C-4.66 36 -5.32 36 -6 36 C-6.29560015 28.70095026 -5.21671475 22.28285085 -3.5625 15.1875 C-3.33240234 14.16462891 -3.10230469 13.14175781 -2.86523438 12.08789062 C-1.9523745 8.04749343 -1.01659546 4.01563955 0 0 Z "
        fill="#DDD5ED" transform="translate(228,274)" />
    <path
        d="M0 0 C1.52521925 4.57565776 -0.73188243 7.43671491 -2.75 11.625 C-3.29140625 12.80835938 -3.29140625 12.80835938 -3.84375 14.015625 C-4.19953125 14.76585937 -4.5553125 15.51609375 -4.921875 16.2890625 C-5.24768555 16.97693848 -5.57349609 17.66481445 -5.90917969 18.37353516 C-7 20 -7 20 -10 21 C-9.52877252 14.0886636 -6.79363994 8.27795839 -4 2 C-3.34 2.33 -2.68 2.66 -2 3 C-1.34 2.01 -0.68 1.02 0 0 Z "
        fill="#EFECF6" transform="translate(245,233)" />
    <path
        d="M0 0 C0.66 0.33 1.32 0.66 2 1 C1.071875 1.886875 0.14375 2.77375 -0.8125 3.6875 C-3.41131118 6.28026743 -5.11997186 8.84155273 -7 12 C-9.2118006 14.7777308 -11.45118102 17.52488181 -14 20 C-14.66 20 -15.32 20 -16 20 C-16 20.66 -16 21.32 -16 22 C-16.66 21.67 -17.32 21.34 -18 21 C-16.69311561 17.17518503 -15.18953972 14.82788401 -12.3046875 12.01171875 C-11.58925781 11.30595703 -10.87382812 10.60019531 -10.13671875 9.87304688 C-9.39035156 9.15181641 -8.64398438 8.43058594 -7.875 7.6875 C-6.74384766 6.57665039 -6.74384766 6.57665039 -5.58984375 5.44335938 C-3.73316465 3.62193367 -1.86984148 1.80789464 0 0 Z "
        fill="#E0D9EE" transform="translate(396,218)" />
    <path
        d="M0 0 C0.99 0.33 1.98 0.66 3 1 C-1.52755251 6.09349657 -6.40189011 9.5926668 -13.3125 10.375 C-16 10 -16 10 -19 8 C-19 7.34 -19 6.68 -19 6 C-18.35933594 6.04640625 -17.71867187 6.0928125 -17.05859375 6.140625 C-10.69412433 6.40620644 -7.2106105 5.6908491 -2 2 C-1.34 1.34 -0.68 0.68 0 0 Z "
        fill="#E4DEF0" transform="translate(359,247)" />
    <path
        d="M0 0 C1.44853548 3.83490483 0.50596185 6.37865916 -0.75 10.1875 C-1.12382813 11.33089844 -1.49765625 12.47429687 -1.8828125 13.65234375 C-2.43582031 15.30943359 -2.43582031 15.30943359 -3 17 C-3.28617187 17.92941406 -3.57234375 18.85882813 -3.8671875 19.81640625 C-4.51544108 21.89816903 -5.24940099 23.9529118 -6 26 C-6.66 26.33 -7.32 26.66 -8 27 C-7.35907519 21.55573982 -6.13286408 16.49675581 -4.5625 11.25 C-4.34529297 10.49589844 -4.12808594 9.74179687 -3.90429688 8.96484375 C-2.90822556 5.59674674 -1.96129939 2.94194908 0 0 Z "
        fill="#E1DAEE" transform="translate(75,342)" />
    <path
        d="M0 0 C0.89203125 0.01804687 1.7840625 0.03609375 2.703125 0.0546875 C3.71632813 0.08949219 3.71632813 0.08949219 4.75 0.125 C3.75 3.125 3.75 3.125 2.015625 4.3046875 C-0.63319681 5.26374367 -2.69065467 5.32393014 -5.5 5.25 C-6.39203125 5.23195313 -7.2840625 5.21390625 -8.203125 5.1953125 C-9.21632813 5.16050781 -9.21632813 5.16050781 -10.25 5.125 C-9.25 2.125 -9.25 2.125 -7.515625 0.9453125 C-4.86680319 -0.01374367 -2.80934533 -0.07393014 0 0 Z "
        fill="#562FA4" transform="translate(81.25,301.875)" />
    <path
        d="M0 0 C0.33 0 0.66 0 1 0 C0.67 3.96 0.34 7.92 0 12 C-2.64 12.33 -5.28 12.66 -8 13 C-7.04600922 11.20601733 -6.08665974 9.41488345 -5.125 7.625 C-4.59132813 6.62726563 -4.05765625 5.62953125 -3.5078125 4.6015625 C-2 2 -2 2 0 0 Z "
        fill="#562FA4" transform="translate(360,306)" />
    <path
        d="M0 0 C3.875 0.875 3.875 0.875 5 2 C4.909084 4.70108504 4.76259234 7.36930311 4.5625 10.0625 C4.51029297 10.82111328 4.45808594 11.57972656 4.40429688 12.36132812 C4.27424165 14.24121722 4.13771962 16.12065685 4 18 C3.67 18 3.34 18 3 18 C3 16.35 3 14.7 3 13 C2.34 13 1.68 13 1 13 C1 10.36 1 7.72 1 5 C-0.32 5.33 -1.64 5.66 -3 6 C-2 4 -1 2 0 0 Z "
        fill="#E1DBEF" transform="translate(359,302)" />
    <path
        d="M0 0 C0.66 0.66 1.32 1.32 2 2 C1.62027075 9.33169559 -1.16873314 17.28680084 -4 24 C-4.66 24.33 -5.32 24.66 -6 25 C-5.33854315 19.33580057 -4.01244028 14.03729239 -2.4375 8.5625 C-2.20353516 7.73556641 -1.96957031 6.90863281 -1.72851562 6.05664062 C-1.15636985 4.03661574 -0.57874796 2.01814324 0 0 Z "
        fill="#E6E0F1" transform="translate(101,248)" />
    <path
        d="M0 0 C3.22743665 0.04643794 4.31193278 0.34733719 7.25 2 C9.25 4.3125 9.25 4.3125 9.5625 7.0625 C9.4078125 8.17625 9.4078125 8.17625 9.25 9.3125 C7.25 8.3125 7.25 8.3125 6.25 5.3125 C2.84679066 4.63576553 2.84679066 4.63576553 -0.75 4.3125 C-1.41 4.9725 -2.07 5.6325 -2.75 6.3125 C-3.41 6.3125 -4.07 6.3125 -4.75 6.3125 C-4.792721 4.64638095 -4.79063832 2.97867115 -4.75 1.3125 C-3.75 0.3125 -3.75 0.3125 0 0 Z "
        fill="#F4F1F9" transform="translate(334.75,302.6875)" />
    <path
        d="M0 0 C2.07617188 3.71289062 2.07617188 3.71289062 1.390625 6.296875 C0.82601562 7.51117188 0.82601562 7.51117188 0.25 8.75 C-1.1799696 11.99382365 -2.3543252 15.0382804 -3.125 18.5 C-4 22 -4 22 -6 24 C-7.01187664 20.20766234 -6.98208839 18.00643848 -5.56640625 14.35546875 C-5.0878418 13.09379883 -5.0878418 13.09379883 -4.59960938 11.80664062 C-4.08624023 10.51016602 -4.08624023 10.51016602 -3.5625 9.1875 C-3.22412109 8.30384766 -2.88574219 7.42019531 -2.53710938 6.50976562 C-1.70256229 4.33524152 -0.85663867 2.16589511 0 0 Z "
        fill="#D9D0EA" transform="translate(248,214)" />
    <path
        d="M0 0 C-1.41409423 3.39529917 -3.02356228 5.05912817 -6 7.1875 C-7.051875 7.95126953 -7.051875 7.95126953 -8.125 8.73046875 C-12.20894341 11.49563876 -15.1389858 11.07840345 -20 11 C-18.03449922 10.00851405 -16.0676817 9.03137471 -14.0703125 8.10546875 C-10.57693839 6.456989 -7.55560461 4.78554761 -4.625 2.25 C-2 0 -2 0 0 0 Z "
        fill="#EEEBF6" transform="translate(274,264)" />
    <path
        d="M0 0 C0.66 0.33 1.32 0.66 2 1 C2.37890625 3.8359375 2.37890625 3.8359375 2.5625 7.375 C2.82302499 12.27255474 2.82302499 12.27255474 4 17 C4.99 17.33 5.98 17.66 7 18 C7 18.66 7 19.32 7 20 C4.625 19.75 4.625 19.75 2 19 C-0.41826166 15.55376649 -0.42788004 11.91960262 -0.6875 7.8125 C-0.77386719 6.56082031 -0.86023438 5.30914062 -0.94921875 4.01953125 C-0.96597656 3.02308594 -0.98273438 2.02664062 -1 1 C-0.67 0.67 -0.34 0.34 0 0 Z "
        fill="#F7F5FB" transform="translate(320,244)" />
    <path
        d="M0 0 C0.33 0.99 0.66 1.98 1 3 C-0.74294474 5.3681635 -2.48379005 7.50699905 -4.4375 9.6875 C-4.96666016 10.29400391 -5.49582031 10.90050781 -6.04101562 11.52539062 C-7.35161048 13.02490005 -8.67466418 14.51350334 -10 16 C-10.66 15.34 -11.32 14.68 -12 14 C-11.401875 13.443125 -10.80375 12.88625 -10.1875 12.3125 C-7.9453964 10.11435679 -7.9453964 10.11435679 -6.5625 7.5625 C-4.74076607 4.57485635 -2.53373757 2.39677879 0 0 Z "
        fill="#F7F5FA" transform="translate(398,218)" />
    <path
        d="M0 0 C0.66 0.33 1.32 0.66 2 1 C1.39622642 6.43396226 1.39622642 6.43396226 -0.3125 8.875 C-2 10 -2 10 -6 10 C-5.35389319 6.51102321 -3.98128683 3.93230451 -2 1 C-1.34 0.67 -0.68 0.34 0 0 Z "
        fill="#E9E4F3" transform="translate(205,264)" />
    <path
        d="M0 0 C0.99 0 1.98 0 3 0 C2.38461538 6.52307692 2.38461538 6.52307692 0.4375 8.9375 C-0.036875 9.288125 -0.51125 9.63875 -1 10 C-1.99 9.01 -2.98 8.02 -4 7 C-2.92598892 4.08482708 -2.22189824 2.22189824 0 0 Z "
        fill="#E1DBEF" transform="translate(345,234)" />
    <path
        d="M0 0 C0.99 0 1.98 0 3 0 C1.50640515 4.84286815 -0.45033567 9.31350896 -2.625 13.875 C-2.94984375 14.56335938 -3.2746875 15.25171875 -3.609375 15.9609375 C-4.40323472 17.64205219 -5.20119558 19.32122921 -6 21 C-7.14680101 17.55959697 -6.87124738 16.99729616 -5.56640625 13.76953125 C-5.24736328 12.96708984 -4.92832031 12.16464844 -4.59960938 11.33789062 C-4.08624023 10.08782227 -4.08624023 10.08782227 -3.5625 8.8125 C-3.22412109 7.96751953 -2.88574219 7.12253906 -2.53710938 6.25195312 C-1.69974448 4.16443784 -0.85379803 2.08083591 0 0 Z "
        fill="#6541AC" transform="translate(252,210)" />
    <path
        d="M0 0 C0.66 0.33 1.32 0.66 2 1 C2.4140625 4.16015625 2.4140625 4.16015625 2.625 8.0625 C2.69976562 9.35285156 2.77453125 10.64320313 2.8515625 11.97265625 C2.90054687 12.97167969 2.94953125 13.97070312 3 15 C2.34 15 1.68 15 1 15 C-0.73830497 11.99060247 -1.251248 9.84057335 -1.1875 6.375 C-1.17783203 5.21097656 -1.17783203 5.21097656 -1.16796875 4.0234375 C-1 2 -1 2 0 0 Z "
        fill="#DFD8EE" transform="translate(374,302)" />
    <path
        d="M0 0 C0 0.99 0 1.98 0 3 C-0.9590625 3.433125 -0.9590625 3.433125 -1.9375 3.875 C-4.15206079 4.82823451 -4.15206079 4.82823451 -5 7 C-4.071875 6.938125 -3.14375 6.87625 -2.1875 6.8125 C1 7 1 7 2.69921875 8.51171875 C3.12847656 9.00285156 3.55773437 9.49398438 4 10 C2.54207116 10.05399736 1.08357288 10.09279177 -0.375 10.125 C-1.18710938 10.14820313 -1.99921875 10.17140625 -2.8359375 10.1953125 C-5 10 -5 10 -7 8 C-6.83436568 4.77013073 -6.44722757 3.41837418 -4.0625 1.1875 C-2 0 -2 0 0 0 Z "
        fill="#E5DFF1" transform="translate(76,300)" />
    <path
        d="M0 0 C0.99 0.33 1.98 0.66 3 1 C2.525625 2.010625 2.05125 3.02125 1.5625 4.0625 C-0.8662235 10.39780234 -0.74677255 17.29383865 -1 24 C-1.33 24 -1.66 24 -2 24 C-2.25086966 21.31297439 -2.47611241 18.62768528 -2.6875 15.9375 C-2.79674805 14.80924805 -2.79674805 14.80924805 -2.90820312 13.65820312 C-3.30784819 8.22773197 -2.50205464 4.84330886 0 0 Z "
        fill="#DDD5EC" transform="translate(282,237)" />
    <path
        d="M0 0 C1.34155445 4.02466335 0.22380042 5.72149865 -1.3125 9.625 C-1.76238281 10.79289062 -2.21226562 11.96078125 -2.67578125 13.1640625 C-4 16 -4 16 -6 17 C-5.53199289 12.94393835 -5.12046792 9.53411321 -3 6 C-3.66 5.67 -4.32 5.34 -5 5 C-3.35 3.35 -1.7 1.7 0 0 Z "
        fill="#F3F0F8" transform="translate(304,252)" />
    <path
        d="M0 0 C2.09749995 2.35968744 2.96905704 3.54616994 3.1875 6.75 C3.0946875 7.86375 3.0946875 7.86375 3 9 C4.65 9 6.3 9 8 9 C8.33 9.66 8.66 10.32 9 11 C6.12342252 11.87895423 4.53622558 12.20289616 1.6875 11.125 C-0.98918649 7.75435776 -0.31297219 4.14688153 0 0 Z "
        fill="#D6CCE8" transform="translate(301,322)" />
    <path
        d="M0 0 C3 2 3 2 3.6875 5.125 C3.8421875 6.548125 3.8421875 6.548125 4 8 C5.98 8 7.96 8 10 8 C10.33 8.99 10.66 9.98 11 11 C6.98313013 11.46707789 5.43498188 11.32150834 2.125 8.875 C-0.32150834 5.56501812 -0.46707789 4.01686987 0 0 Z "
        fill="#CDC1E4" transform="translate(248,265)" />
    <path
        d="M0 0 C0 3 0 3 -2.25 5.4375 C-3.1575 6.283125 -4.065 7.12875 -5 8 C-6.1446875 9.1446875 -6.1446875 9.1446875 -7.3125 10.3125 C-7.869375 10.869375 -8.42625 11.42625 -9 12 C-9.66 11.67 -10.32 11.34 -11 11 C-9.92173635 9.72486237 -8.83714481 8.45507431 -7.75 7.1875 C-7.14671875 6.47980469 -6.5434375 5.77210938 -5.921875 5.04296875 C-4.07629602 3.08110329 -2.20054668 1.54330375 0 0 Z "
        fill="#F4F2F9" transform="translate(183,298)" />
    <path
        d="M0 0 C0.66 0 1.32 0 2 0 C1.40323978 3.29673633 0.31828226 5.1723181 -1.875 7.6875 C-2.38804687 8.28949219 -2.90109375 8.89148438 -3.4296875 9.51171875 C-5 11 -5 11 -8 12 C-8 9 -8 9 -5.6875 6.5625 C-4.800625 5.716875 -3.91375 4.87125 -3 4 C-2.443125 3.236875 -1.88625 2.47375 -1.3125 1.6875 C-0.879375 1.130625 -0.44625 0.57375 0 0 Z "
        fill="#ECE7F4" transform="translate(335,252)" />
    <path
        d="M0 0 C1.1484375 1.609375 1.1484375 1.609375 2 4 C1.1015625 7.015625 1.1015625 7.015625 -0.375 10.25 C-0.85710937 11.32765625 -1.33921875 12.4053125 -1.8359375 13.515625 C-2.22007812 14.33546875 -2.60421875 15.1553125 -3 16 C-3.66 15.67 -4.32 15.34 -5 15 C-3.33333333 10 -1.66666667 5 0 0 Z "
        fill="#E1DAEE" transform="translate(390,177)" />
    <path
        d="M0 0 C1 3 1 3 0.00390625 5.26171875 C-0.47175781 6.06222656 -0.94742187 6.86273438 -1.4375 7.6875 C-2.14712891 8.89986328 -2.14712891 8.89986328 -2.87109375 10.13671875 C-3.24363281 10.75160156 -3.61617188 11.36648438 -4 12 C-4.66 11.67 -5.32 11.34 -6 11 C-3.76687117 3.98159509 -3.76687117 3.98159509 -2 1 C-1.34 0.67 -0.68 0.34 0 0 Z "
        fill="#E9E4F3" transform="translate(348,322)" />
    <path
        d="M0 0 C0.66 0.66 1.32 1.32 2 2 C1.86328125 4.2421875 1.86328125 4.2421875 1.3125 6.875 C1.14363281 7.73867188 0.97476563 8.60234375 0.80078125 9.4921875 C-0.05432912 12.17014289 -1.19745162 13.86474985 -3 16 C-2.52013969 10.43109483 -1.70084819 5.32932432 0 0 Z "
        fill="#D9D0EA" transform="translate(83,310)" />
    <path
        d="M0 0 C0.6875 1.625 0.6875 1.625 1 4 C-0.4375 7.25 -0.4375 7.25 -2 10 C-1.34 10.33 -0.68 10.66 0 11 C-1.65 10.67 -3.3 10.34 -5 10 C-4.55090939 8.51800098 -4.09043436 7.03944764 -3.625 5.5625 C-3.36976563 4.73878906 -3.11453125 3.91507812 -2.8515625 3.06640625 C-2 1 -2 1 0 0 Z "
        fill="#E4DDF0" transform="translate(331,308)" />
    <path
        d="M0 0 C3.96 0 7.92 0 12 0 C12.33 0.99 12.66 1.98 13 3 C6.07 2.505 6.07 2.505 -1 2 C-0.67 1.34 -0.34 0.68 0 0 Z "
        fill="#F7F6FB" transform="translate(393,247)" />
    <path
        d="M0 0 C0.66 0.33 1.32 0.66 2 1 C2 1.66 2 2.32 2 3 C-2.62197306 5.21854707 -5.76824163 6.38281159 -11 6 C-10.67 5.01 -10.34 4.02 -10 3 C-7.96875 2.3046875 -7.96875 2.3046875 -5.5 1.875 C-2.46069634 1.52112584 -2.46069634 1.52112584 0 0 Z "
        fill="#D6CDE9" transform="translate(213,281)" />
    <path
        d="M0 0 C3.3 0.33 6.6 0.66 10 1 C9.67 1.99 9.34 2.98 9 4 C3.375 4.25 3.375 4.25 0 2 C0 1.34 0 0.68 0 0 Z "
        fill="#DBD3EB" transform="translate(340,253)" />
    <path
        d="M0 0 C2.5 0.125 2.5 0.125 3.5 1.125 C3.54063832 2.79117115 3.542721 4.45888095 3.5 6.125 C2.84 6.125 2.18 6.125 1.5 6.125 C1.5 4.805 1.5 3.485 1.5 2.125 C0.71625 2.62 -0.0675 3.115 -0.875 3.625 C-3.5 5.125 -3.5 5.125 -5.5 5.125 C-3.09504132 0.15475207 -3.09504132 0.15475207 0 0 Z "
        fill="#ECE8F5" transform="translate(288.5,231.875)" />
    <path
        d="M0 0 C4.95 0.33 9.9 0.66 15 1 C15 1.33 15 1.66 15 2 C14.09507812 2.09087891 14.09507812 2.09087891 13.171875 2.18359375 C11.97304687 2.30927734 11.97304687 2.30927734 10.75 2.4375 C9.96109375 2.51871094 9.1721875 2.59992188 8.359375 2.68359375 C6.01306899 2.94421505 6.01306899 2.94421505 3.84375 3.59375 C1.32988343 4.1476528 0.14376458 3.30157135 -2 2 C-1.34 2 -0.68 2 0 2 C0 1.34 0 0.68 0 0 Z "
        fill="#C4B7DF" transform="translate(135,318)" />
    <path
        d="M0 0 C2 3 2 3 2 4.9375 C0.47841502 8.07576903 -2.0691916 9.25398648 -5 11 C-3.92598892 8.08482708 -3.22189824 6.22189824 -1 4 C-0.3574765 1.93125966 -0.3574765 1.93125966 0 0 Z "
        fill="#DED6ED" transform="translate(341,308)" />
    <path
        d="M0 0 C0.66 0 1.32 0 2 0 C2 0.66 2 1.32 2 2 C2.66 2 3.32 2 4 2 C3.25 3.9375 3.25 3.9375 2 6 C-0.125 6.75 -0.125 6.75 -2 7 C-1.34 4.69 -0.68 2.38 0 0 Z "
        fill="#F5F3F9" transform="translate(340,241)" />
    <path
        d="M0 0 C0.99 0 1.98 0 3 0 C2.88637738 1.4800841 2.75877092 2.95910074 2.625 4.4375 C2.52058594 5.67306641 2.52058594 5.67306641 2.4140625 6.93359375 C2.27742188 7.61550781 2.14078125 8.29742187 2 9 C1.01 9.495 1.01 9.495 0 10 C0.33 7.69 0.66 5.38 1 3 C0.34 3 -0.32 3 -1 3 C-0.67 2.01 -0.34 1.02 0 0 Z "
        fill="#F2EFF8" transform="translate(269,169)" />
    <path
        d="M0 0 C0.99 0.66 1.98 1.32 3 2 C2.25 4.9375 2.25 4.9375 1 8 C-0.32 8.33 -1.64 8.66 -3 9 C-2.01 6.03 -1.02 3.06 0 0 Z "
        fill="#E3DCF0" transform="translate(234,253)" />
    <path
        d="M0 0 C0.66 0.66 1.32 1.32 2 2 C1.7578125 4.3828125 1.7578125 4.3828125 1.125 7.125 C0.92132813 8.03507812 0.71765625 8.94515625 0.5078125 9.8828125 C0.34023437 10.58148438 0.17265625 11.28015625 0 12 C-2 9 -2 9 -1.7578125 6.73828125 C-1.44457031 5.53751953 -1.44457031 5.53751953 -1.125 4.3125 C-0.92132813 3.50425781 -0.71765625 2.69601563 -0.5078125 1.86328125 C-0.34023437 1.24839844 -0.17265625 0.63351563 0 0 Z "
        fill="#D6CDE9" transform="translate(101,248)" />
    <path
        d="M0 0 C0.95465783 2.16967689 1.14401212 3.56328793 0.3984375 5.82421875 C-0.35870385 7.5684743 -1.17609198 9.28627131 -2 11 C-2.33 11 -2.66 11 -3 11 C-2.53199289 6.94393835 -2.12046792 3.53411321 0 0 Z "
        fill="#ECE8F5" transform="translate(385,192)" />
    <path
        d="M0 0 C1.46726798 3.81489674 0.43336419 6.29011622 -1 10 C-1.33 10 -1.66 10 -2 10 C-2.1953125 3.9453125 -2.1953125 3.9453125 -2 2 C-1.34 1.34 -0.68 0.68 0 0 Z "
        fill="#FBFAFD" transform="translate(304,318)" />
    <path
        d="M0 0 C5.75 1.875 5.75 1.875 8 3 C8 3.66 8 4.32 8 5 C4.62537285 4.45276317 2.91765 3.9451 0 2 C0 1.34 0 0.68 0 0 Z "
        fill="#F0EDF7" transform="translate(114,310)" />
    <path
        d="M0 0 C0.99 0 1.98 0 3 0 C1.62845496 2.95409701 0.01136276 5.44008376 -2 8 C-2.125 5.125 -2.125 5.125 -2 2 C-1.34 1.34 -0.68 0.68 0 0 Z "
        fill="#FBFAFC" transform="translate(251,262)" />
    <path
        d="M0 0 C0.99 0.66 1.98 1.32 3 2 C2.01 3.485 2.01 3.485 1 5 C0.34 5 -0.32 5 -1 5 C-1 5.66 -1 6.32 -1 7 C-1.66 6.67 -2.32 6.34 -3 6 C-1.125 1.125 -1.125 1.125 0 0 Z "
        fill="#D1C6E6" transform="translate(381,233)" />
    <path
        d="M0 0 C0.99 0.33 1.98 0.66 3 1 C1.95125002 3.62187494 1.35068687 4.79371361 -1.125 6.25 C-1.74375 6.4975 -2.3625 6.745 -3 7 C-1.125 1.125 -1.125 1.125 0 0 Z "
        fill="#D2C8E7" transform="translate(252,257)" />
    <path
        d="M0 0 C0 0.99 0 1.98 0 3 C-1.65 3.33 -3.3 3.66 -5 4 C-5 3.01 -5 2.02 -5 1 C-3.35 0.67 -1.7 0.34 0 0 Z "
        fill="#D8CFEA" transform="translate(393,329)" />
    <path
        d="M0 0 C0.99 0 1.98 0 3 0 C2.34 2.97 1.68 5.94 1 9 C-1 6 -1 6 -0.625 2.8125 C-0.41875 1.884375 -0.2125 0.95625 0 0 Z "
        fill="#CDC1E4" transform="translate(89,289)" />
    <path
        d="M0 0 C1.13643966 3.40931897 0.86747764 4.00335456 -0.4375 7.1875 C-0.86869141 8.26064453 -0.86869141 8.26064453 -1.30859375 9.35546875 C-1.53675781 9.89816406 -1.76492188 10.44085938 -2 11 C-3.21563174 7.05347724 -2.53534125 4.83835312 -1 1 C-0.67 0.67 -0.34 0.34 0 0 Z "
        fill="#F7F6FB" transform="translate(368,240)" />
    <path
        d="M0 0 C1.2077558 3.62326739 0.54311128 4.64146369 -1 8 C-1.66 8 -2.32 8 -3 8 C-2.25 2.25 -2.25 2.25 0 0 Z "
        fill="#F1EEF7" transform="translate(328,187)" />
    <path
        d="M0 0 C1.04187157 3.12561472 1.23843794 4.04680182 0 7 C-2.0625 8.25 -2.0625 8.25 -4 9 C-2.94124926 5.59687262 -1.99097846 2.98646769 0 0 Z "
        fill="#613DAA" transform="translate(268,174)" />
    <path
        d="M0 0 C1.125 1.6875 1.125 1.6875 2 4 C1.125 6.75 1.125 6.75 0 9 C-0.66 8.67 -1.32 8.34 -2 8 C-1.47731534 5.23723823 -0.89130413 2.6739124 0 0 Z "
        fill="#E2DCEF" transform="translate(399,154)" />
</svg>